<?xml version="1.0" encoding="utf-8"?>
<!-- Generated by IcoMoon.io -->
<!DOCTYPE svg PUBLIC "-//W3C//DTD SVG 1.1//EN" "http://www.w3.org/Graphics/SVG/1.1/DTD/svg11.dtd">
<svg version="1.1" xmlns="http://www.w3.org/2000/svg" xmlns:xlink="http://www.w3.org/1999/xlink" width="32" height="32" viewBox="0 0 32 32">
<path fill="#e60278" d="M27.905 13.223c-0.68-1.608-1.654-3.052-2.894-4.292s-2.684-2.213-4.293-2.894c-1.666-0.704-3.434-1.062-5.257-1.062s-3.591 0.357-5.257 1.062c-1.608 0.68-3.052 1.654-4.292 2.894s-2.213 2.684-2.893 4.292c-0.704 1.665-1.062 3.434-1.062 5.257s0.357 3.591 1.062 5.257c0.68 1.608 1.654 3.052 2.893 4.292s2.684 2.213 4.292 2.893c1.665 0.704 3.434 1.062 5.257 1.062s3.591-0.357 5.257-1.061c1.608-0.68 3.053-1.654 4.293-2.893s2.214-2.684 2.894-4.292c0.705-1.666 1.062-3.434 1.062-5.257s-0.357-3.591-1.062-5.257zM23.597 26.614c-2.173 2.173-5.062 3.369-8.136 3.369s-5.962-1.197-8.135-3.369-3.369-5.062-3.369-8.135c0-3.073 1.197-5.962 3.369-8.135s5.062-3.369 8.135-3.369c3.073 0 5.962 1.197 8.136 3.369s3.37 5.062 3.37 8.135c0 3.073-1.197 5.962-3.37 8.134zM15.969 23.018h-1.924c-0.138 0-0.25 0.112-0.25 0.25v1.942c0 0.138 0.112 0.25 0.25 0.25h1.924c0.138 0 0.25-0.112 0.25-0.25v-1.942c0-0.138-0.112-0.25-0.25-0.25zM18.092 12.665c-0.704-0.649-1.695-0.978-2.944-0.978-1.143 0-2.101 0.315-2.849 0.938-0.763 0.636-1.14 1.489-1.12 2.537 0.001 0.037 0.009 0.072 0.025 0.105l0.027 0.054c0.042 0.086 0.129 0.14 0.225 0.14h1.706c0.138 0 0.25-0.112 0.25-0.25 0-0.504 0.158-0.871 0.482-1.121 0.347-0.267 0.757-0.397 1.254-0.397 0.57 0 0.991 0.145 1.287 0.443s0.439 0.725 0.439 1.303c0 0.485-0.114 0.902-0.339 1.24-0.248 0.372-0.668 0.909-1.25 1.597-0.642 0.582-1.032 1.046-1.192 1.419-0.206 0.48-0.244 1.487-0.248 2.045-0 0.067 0.026 0.131 0.073 0.178s0.111 0.074 0.177 0.074h1.788c0.138 0 0.25-0.112 0.25-0.25 0-0.566 0.037-1.055 0.096-1.278 0.056-0.215 0.233-0.472 0.527-0.764 0.709-0.686 1.289-1.368 1.725-2.028 0.451-0.686 0.68-1.452 0.68-2.278 0-1.156-0.36-2.074-1.070-2.728z"></path>
</svg>
