<?xml version="1.0" encoding="utf-8"?>
<!-- Generated by IcoMoon.io -->
<!DOCTYPE svg PUBLIC "-//W3C//DTD SVG 1.1//EN" "http://www.w3.org/Graphics/SVG/1.1/DTD/svg11.dtd">
<svg fill="#FFC200" version="1.1" xmlns="http://www.w3.org/2000/svg" xmlns:xlink="http://www.w3.org/1999/xlink" width="32" height="32" viewBox="0 0 32 32">
<path d="M16.494 31.985c-1.818 0-3.582-0.356-5.244-1.059-1.604-0.678-3.045-1.65-4.281-2.886s-2.208-2.677-2.886-4.281c-0.703-1.661-1.059-3.426-1.059-5.244s0.356-3.582 1.059-5.244c0.678-1.604 1.65-3.045 2.886-4.281s2.677-2.208 4.281-2.886c1.661-0.703 3.426-1.059 5.244-1.059s3.582 0.356 5.244 1.059c1.604 0.678 3.045 1.65 4.281 2.886s2.208 2.677 2.886 4.281c0.703 1.661 1.059 3.426 1.059 5.244s-0.356 3.583-1.059 5.244c-0.678 1.604-1.65 3.045-2.886 4.281s-2.677 2.208-4.281 2.886c-1.661 0.703-3.426 1.059-5.244 1.059zM16.494 7.044c-3.064 0-5.945 1.193-8.111 3.359s-3.359 5.047-3.359 8.111c0 3.064 1.193 5.945 3.359 8.111s5.047 3.359 8.111 3.359 5.945-1.193 8.111-3.359c2.166-2.166 3.359-5.047 3.359-8.111s-1.193-5.945-3.359-8.111-5.047-3.359-8.111-3.359zM16.504 20.014c-0.115 0-0.231-0.020-0.341-0.060l-5.535-2.011c-0.519-0.189-0.787-0.762-0.598-1.281s0.762-0.787 1.281-0.598l5.060 1.838 7.088-4.733c0.459-0.307 1.080-0.183 1.387 0.276s0.183 1.080-0.276 1.387l-7.509 5.014c-0.167 0.111-0.36 0.168-0.555 0.168z"></path>
</svg>
