<?xml version="1.0" encoding="utf-8"?>
<!-- Generated by IcoMoon.io -->
<!DOCTYPE svg PUBLIC "-//W3C//DTD SVG 1.1//EN" "http://www.w3.org/Graphics/SVG/1.1/DTD/svg11.dtd">
<svg version="1.1" xmlns="http://www.w3.org/2000/svg" xmlns:xlink="http://www.w3.org/1999/xlink" width="32" height="32" viewBox="0 0 32 32">
<path fill="#e60278" d="M28.963 13.187c-0.681-1.609-1.655-3.055-2.896-4.296s-2.686-2.215-4.296-2.896c-1.667-0.705-3.437-1.063-5.261-1.063s-3.594 0.357-5.26 1.063c-1.609 0.681-3.055 1.655-4.296 2.896s-2.215 2.686-2.896 4.296c-0.705 1.667-1.063 3.437-1.063 5.261s0.358 3.595 1.063 5.262c0.681 1.61 1.655 3.055 2.896 4.296s2.686 2.215 4.296 2.896c1.667 0.705 3.437 1.062 5.26 1.062s3.594-0.357 5.261-1.062c1.61-0.681 3.055-1.655 4.296-2.896s2.216-2.686 2.897-4.296c0.705-1.667 1.063-3.437 1.063-5.262s-0.358-3.594-1.063-5.261zM24.653 26.591c-2.175 2.175-5.067 3.373-8.143 3.373s-5.967-1.198-8.142-3.373c-2.175-2.175-3.373-5.067-3.373-8.143s1.198-5.967 3.373-8.142c2.175-2.175 5.067-3.373 8.142-3.373s5.968 1.198 8.143 3.373 3.373 5.067 3.373 8.142c0 3.076-1.198 5.968-3.373 8.143zM17.377 15.947h-1.724c-0.138 0-0.25 0.112-0.25 0.25v8.564c0 0.138 0.112 0.25 0.25 0.25h1.724c0.138 0 0.25-0.112 0.25-0.25v-8.564c0-0.138-0.112-0.25-0.25-0.25zM17.377 11.979h-1.734c-0.138 0-0.25 0.112-0.25 0.25v1.974c0 0.138 0.112 0.25 0.25 0.25h1.734c0.138 0 0.25-0.112 0.25-0.25v-1.974c0-0.138-0.112-0.25-0.25-0.25z"></path>
</svg>
