<?xml version="1.0" encoding="utf-8"?>
<!-- Generated by IcoMoon.io -->
<!DOCTYPE svg PUBLIC "-//W3C//DTD SVG 1.1//EN" "http://www.w3.org/Graphics/SVG/1.1/DTD/svg11.dtd">
<svg version="1.1" xmlns="http://www.w3.org/2000/svg" xmlns:xlink="http://www.w3.org/1999/xlink" width="32" height="32" viewBox="0 0 32 32">
<path fill="#158e0f" d="M16.506 31.97c-1.821 0-3.588-0.357-5.252-1.061-1.607-0.68-3.050-1.653-4.289-2.892s-2.212-2.682-2.892-4.289c-0.704-1.665-1.061-3.432-1.061-5.254s0.357-3.588 1.061-5.253c0.68-1.607 1.653-3.050 2.892-4.289s2.682-2.212 4.289-2.892c1.664-0.704 3.431-1.061 5.252-1.061s3.589 0.357 5.253 1.061c1.607 0.68 3.050 1.653 4.29 2.891s2.212 2.682 2.892 4.289c0.704 1.664 1.061 3.432 1.061 5.253s-0.357 3.589-1.061 5.254c-0.68 1.607-1.653 3.050-2.892 4.29s-2.682 2.212-4.29 2.892c-1.664 0.704-3.432 1.061-5.253 1.061zM16.506 6.98c-3.070 0-5.956 1.196-8.127 3.367s-3.367 5.057-3.367 8.127c0 3.071 1.196 5.958 3.367 8.129s5.057 3.367 8.127 3.367c3.071 0 5.957-1.196 8.129-3.367s3.367-5.058 3.367-8.129c0-3.070-1.196-5.956-3.367-8.127s-5.058-3.367-8.129-3.367zM13.73 24.968c-0.276 0-0.54-0.114-0.73-0.316l-3.747-3.997c-0.378-0.403-0.357-1.036 0.046-1.413s1.036-0.357 1.413 0.046l3.016 3.217 8.581-9.184c0.377-0.404 1.010-0.425 1.413-0.048s0.425 1.010 0.048 1.413l-9.311 9.965c-0.189 0.202-0.453 0.317-0.73 0.317-0 0-0.001 0-0.001 0z"></path>
</svg>
