<?xml version="1.0" encoding="utf-8"?>
<!-- Generated by IcoMoon.io -->
<!DOCTYPE svg PUBLIC "-//W3C//DTD SVG 1.1//EN" "http://www.w3.org/Graphics/SVG/1.1/DTD/svg11.dtd">
<svg fill="#212121" version="1.1" xmlns="http://www.w3.org/2000/svg" xmlns:xlink="http://www.w3.org/1999/xlink" width="32" height="32" viewBox="0 0 32 32">
<path d="M21.771 31.95c-1.559 0-3.104-0.329-4.592-0.977-1.49-0.649-2.858-1.591-4.067-2.8l-6.947-6.946c-2.316-2.316-3.754-5.284-4.050-8.357-0.153-1.592 0.003-3.161 0.465-4.662 0.486-1.582 1.302-3.053 2.425-4.374 0.018-0.021 0.036-0.041 0.055-0.060l1.466-1.465c0.203-0.203 0.484-0.309 0.77-0.291s0.552 0.159 0.727 0.386l5.299 6.85c0.273 0.353 0.279 0.843 0.016 1.203-1.068 1.458-1.52 2.393-1.512 3.126 0.008 0.697 0.466 1.448 1.531 2.513l4.883 4.884c0.513 0.513 0.857 0.824 1.117 1.007 0.236 0.166 0.322 0.168 0.323 0.168 0.182 0 0.802-0.493 1.301-0.889 0.371-0.295 0.833-0.662 1.388-1.069 0.368-0.27 0.871-0.256 1.224 0.032l7.072 5.78c0.219 0.179 0.352 0.442 0.366 0.724s-0.092 0.557-0.292 0.757l-1.090 1.090c-1.113 1.113-2.371 1.967-3.739 2.539-1.317 0.551-2.71 0.83-4.14 0.83zM6.503 5.16c-1.832 2.17-2.661 4.769-2.397 7.518 0.251 2.612 1.485 5.145 3.473 7.134l6.947 6.946c2.059 2.058 4.632 3.192 7.245 3.192 2.409 0 4.645-0.962 6.465-2.783l0.308-0.308-5.609-4.584c-0.259 0.2-0.493 0.385-0.71 0.558-1.003 0.797-1.665 1.323-2.545 1.323-1.016 0-1.859-0.763-2.855-1.761l-4.882-4.883c-0.7-0.7-1.183-1.294-1.519-1.871-0.394-0.677-0.59-1.342-0.598-2.033-0.012-1.077 0.417-2.184 1.461-3.714l-4.152-5.367-0.634 0.633z"></path>
</svg>
